<?xml version="1.0" encoding="iso-8859-1"?>
<!-- Uploaded to: SVG Repo, www.svgrepo.com, Generator: SVG Repo Mixer Tools -->
<svg height="800px" width="800px" version="1.1" id="Layer_1" xmlns="http://www.w3.org/2000/svg" xmlns:xlink="http://www.w3.org/1999/xlink" 
	 viewBox="0 0 512 512" xml:space="preserve">
<path style="fill:#BDBCBC;" d="M404.432,227.639L281.196,126.565l-31.293,39.038l122.803,100.718
	c1.434,1.176,3.224,1.811,5.063,1.811c0.261,0,0.523-0.013,0.785-0.038c2.107-0.209,4.046-1.245,5.388-2.883l21.601-26.338
	C408.339,235.465,407.842,230.435,404.432,227.639z"/>
<path style="fill:#FF8C78;" d="M503.248,286.658l-86.419-70.877c-1.637-1.343-3.742-1.979-5.847-1.772l-23.97,2.368
	c-2.107,0.209-4.046,1.245-5.388,2.883l-21.6,26.337c-1.343,1.637-1.98,3.74-1.772,5.847l2.368,23.969
	c0.208,2.107,1.245,4.045,2.883,5.388l86.419,70.877c4.446,3.647,9.821,5.421,15.165,5.421c6.932,0,13.812-2.987,18.541-8.752
	l22.952-27.983l0,0C514.953,310.153,513.459,295.032,503.248,286.658z"/>
<path style="fill:#DF7A6E;" d="M358.253,251.443l2.368,23.969c0.208,2.107,1.245,4.045,2.883,5.388l86.419,70.877
	c4.446,3.647,9.821,5.421,15.165,5.421c6.932,0,13.812-2.987,18.541-8.752L360.027,245.595
	C358.682,247.232,358.044,249.335,358.253,251.443z"/>
<path style="fill:#E9E9E9;" d="M233.239,50.262c-8.252,15.945-18.151,31.003-29.641,45.011
	c-12.934,15.77-27.566,29.826-43.69,42.035l76.19,61.884c9.966-20.583,22.595-39.665,37.755-56.981
	c9.825-11.222,20.578-21.515,32.154-30.824L233.239,50.262z"/>
<g>
	<path style="fill:#D3D2D2;" d="M244.581,185.768l-74.074-60.753c-10.21-8.374-25.332-6.88-33.706,3.331l-12.152,14.815
		c-8.374,10.211-6.88,25.332,3.331,33.707l74.073,60.752c4.446,3.647,9.822,5.422,15.167,5.422c6.932,0,13.812-2.987,18.54-8.752
		l12.15-14.814c4.058-4.946,5.945-11.177,5.316-17.543C252.598,195.565,249.527,189.824,244.581,185.768z"/>
	<path style="fill:#D3D2D2;" d="M350.43,83.414c-0.628-6.366-3.699-12.107-8.645-16.164L267.711,6.497
		c-4.945-4.058-11.176-5.943-17.542-5.316c-6.366,0.629-12.107,3.7-16.164,8.647l-12.151,14.814
		c-4.058,4.946-5.945,11.177-5.316,17.543s3.7,12.107,8.645,16.164l74.074,60.752c4.445,3.646,9.822,5.421,15.166,5.421
		c6.932,0,13.811-2.987,18.539-8.752l12.15-14.814C349.171,96.01,351.06,89.78,350.43,83.414z"/>
</g>
<g>
	<path style="fill:#BDBCBC;" d="M170.508,125.014c-10.21-8.374-25.332-6.88-33.706,3.331L124.65,143.16
		c-8.374,10.211-6.88,25.332,3.331,33.707l10.663,8.744l42.099-52.203L170.508,125.014z"/>
	<path style="fill:#BDBCBC;" d="M250.168,1.181c-6.366,0.629-12.107,3.7-16.164,8.647l-12.15,14.814
		c-4.058,4.946-5.945,11.177-5.316,17.543s3.7,12.107,8.645,16.164l9.684,7.943l42.098-52.202l-9.255-7.592
		C262.765,2.441,256.535,0.555,250.168,1.181z"/>
	<path style="fill:#BDBCBC;" d="M217.221,243.04c6.932,0,13.812-2.987,18.54-8.752l12.15-14.814
		c4.058-4.947,5.945-11.177,5.316-17.543c-0.629-6.366-3.7-12.107-8.645-16.164l-41.188-33.781l-42.099,52.203l40.76,33.43
		C206.501,241.265,211.875,243.04,217.221,243.04z"/>
	<path style="fill:#BDBCBC;" d="M299.259,119.101c4.445,3.646,9.822,5.421,15.166,5.421c6.932,0,13.811-2.987,18.54-8.752
		l12.15-14.814c4.058-4.945,5.945-11.177,5.316-17.542c-0.628-6.366-3.699-12.107-8.645-16.164l-42.167-34.584L257.52,84.868
		L299.259,119.101z"/>
</g>
<g>
	<path style="fill:#A7A6A6;" d="M244.581,185.768l-9.442-7.744l-41.672,52.552l8.588,7.043c4.446,3.647,9.822,5.422,15.167,5.422
		c6.932,0,13.812-2.987,18.54-8.752l12.15-14.814c4.058-4.946,5.945-11.177,5.316-17.543
		C252.598,195.565,249.527,189.824,244.581,185.768z"/>
	<path style="fill:#A7A6A6;" d="M350.43,83.414c-0.628-6.366-3.699-12.107-8.645-16.164l-11.394-9.345l-41.672,52.551l10.54,8.644
		c4.445,3.646,9.822,5.421,15.166,5.421c6.932,0,13.811-2.987,18.54-8.752l12.15-14.814C349.171,96.01,351.06,89.78,350.43,83.414z"
		/>
</g>
<path style="fill:#FFD791;" d="M262.919,358.188c0-3.024-1.708-5.788-4.413-7.14l-68.125-34.062c-2.247-1.124-4.893-1.124-7.14,0
	l-68.125,34.062c-2.705,1.352-4.413,4.116-4.413,7.14v105.913h67.06v-46.836h18.096v46.836h67.06V358.188z"/>
<g>
	<path style="fill:#F8BE73;" d="M143.168,337.022l-28.052,14.026c-2.705,1.352-4.413,4.116-4.413,7.14v105.913h32.466V337.022z"/>
	<path style="fill:#F8BE73;" d="M280.475,349.141c-1.292,0-2.602-0.314-3.816-0.976l-89.848-49.008l-89.849,49.008
		c-3.87,2.112-8.72,0.686-10.831-3.186c-2.112-3.87-0.686-8.72,3.186-10.831l93.672-51.094c2.382-1.301,5.263-1.301,7.646,0
		l93.672,51.094c3.87,2.111,5.297,6.96,3.185,10.831C286.042,347.636,283.302,349.141,280.475,349.141z"/>
</g>
<path style="fill:#E9E9E9;" d="M288.466,468.891c0-4.409-3.573-7.983-7.983-7.983H93.139c-4.409,0-7.983,3.574-7.983,7.983v31.401
	h203.31V468.891z"/>
<path style="fill:#D3D2D2;" d="M122.589,460.907h-29.45c-4.409,0-7.983,3.574-7.983,7.983v31.401h37.433V460.907z"/>
<path style="fill:#BDBCBC;" d="M306.029,494.97H67.593c-4.409,0-7.983,3.574-7.983,7.983s3.574,7.983,7.983,7.983h238.437
	c4.41,0,7.983-3.574,7.983-7.983S310.439,494.97,306.029,494.97z"/>
<g>
	<path style="fill:#96CA62;" d="M399.701,391.718c4.41,0,7.983-3.574,7.983-7.983c0-4.409-3.573-7.983-7.983-7.983h-17.563v-9.048
		c0-4.409-3.573-7.983-7.983-7.983c-4.41,0-7.983,3.574-7.983,7.983v9.048h-6.919c-10.271,0-18.628,8.357-18.628,18.628v17.031
		c0,10.271,8.357,18.628,18.628,18.628h6.919v22.353h-17.563c-4.41,0-7.983,3.574-7.983,7.983c0,4.409,3.573,7.983,7.983,7.983
		h17.563v9.048c0,4.409,3.573,7.983,7.983,7.983c4.41,0,7.983-3.574,7.983-7.983v-9.048h6.919c10.271,0,18.628-8.357,18.628-18.628
		V432.7c0-10.271-8.357-18.628-18.628-18.628h-6.919v-22.353H399.701z M389.056,430.038c1.468,0,2.661,1.194,2.661,2.661v17.031
		c0,1.467-1.193,2.661-2.661,2.661h-6.919v-22.353H389.056z M366.17,414.072h-6.919c-1.468,0-2.661-1.194-2.661-2.661v-17.031
		c0-1.467,1.193-2.661,2.661-2.661h6.919V414.072z"/>
	<path style="fill:#96CA62;" d="M457.181,90.479h-6.919V68.126h17.563c4.41,0,7.983-3.574,7.983-7.983s-3.573-7.983-7.983-7.983
		h-17.563v-9.048c0-4.409-3.573-7.983-7.983-7.983c-4.41,0-7.983,3.574-7.983,7.983v9.048h-6.919
		c-10.271,0-18.628,8.357-18.628,18.628v17.031c0,10.271,8.357,18.628,18.628,18.628h6.919v22.353h-17.563
		c-4.41,0-7.983,3.574-7.983,7.983s3.573,7.983,7.983,7.983h17.563v9.048c0,4.409,3.573,7.983,7.983,7.983
		c4.41,0,7.983-3.574,7.983-7.983v-9.048h6.919c10.271,0,18.628-8.357,18.628-18.628v-17.031
		C475.809,98.835,467.452,90.479,457.181,90.479z M427.376,90.479c-1.468,0-2.661-1.194-2.661-2.661V70.787
		c0-1.467,1.193-2.661,2.661-2.661h6.919v22.353H427.376z M459.842,126.138c0,1.467-1.193,2.661-2.661,2.661h-6.919v-22.353h6.919
		c1.468,0,2.661,1.194,2.661,2.661V126.138z"/>
	<path style="fill:#96CA62;" d="M59.077,187.344c4.409,0,7.983-3.574,7.983-7.983c0-4.409-3.574-7.983-7.983-7.983H41.514v-9.048
		c0-4.409-3.574-7.983-7.983-7.983c-4.409,0-7.983,3.574-7.983,7.983v9.048h-6.919C8.357,171.377,0,179.734,0,190.005v17.031
		c0,10.271,8.357,18.628,18.628,18.628h6.919v22.353H7.983c-4.409,0-7.983,3.574-7.983,7.983c0,4.409,3.574,7.983,7.983,7.983
		h17.563v9.048c0,4.409,3.574,7.983,7.983,7.983c4.409,0,7.983-3.574,7.983-7.983v-9.048h6.919c10.271,0,18.628-8.357,18.628-18.628
		v-17.031c0-10.271-8.357-18.628-18.628-18.628h-6.919v-22.353H59.077z M48.432,225.664c1.467,0,2.661,1.194,2.661,2.661v17.031
		c0,1.467-1.194,2.661-2.661,2.661h-6.919v-22.353H48.432z M25.547,209.697h-6.919c-1.467,0-2.661-1.194-2.661-2.661v-17.031
		c0-1.467,1.194-2.661,2.661-2.661h6.919V209.697z"/>
</g>
</svg>